<mxfile host="app.diagrams.net" modified="2020-11-16T01:44:34.696Z" agent="5.0 (Windows NT 10.0; Win64; x64) AppleWebKit/537.36 (KHTML, like Gecko) Chrome/86.0.4240.111 Safari/537.36" etag="UdAG6gD1LUyKNu2uVoyI" version="13.9.1" type="github" pages="4">
  <diagram id="NPU2vHB_9MgOInEG4pwj" name="Page-1">
    <mxGraphModel dx="1422" dy="738" grid="1" gridSize="10" guides="1" tooltips="1" connect="1" arrows="1" fold="1" page="1" pageScale="1" pageWidth="827" pageHeight="1169" math="0" shadow="0">
      <root>
        <mxCell id="0" />
        <mxCell id="1" parent="0" />
        <mxCell id="Tf8j6212PkN7MsToNADK-2" style="edgeStyle=orthogonalEdgeStyle;rounded=0;orthogonalLoop=1;jettySize=auto;html=1;" parent="1" source="oPMnrP6W9b5oBgMDUf0t-1" target="Tf8j6212PkN7MsToNADK-1" edge="1">
          <mxGeometry relative="1" as="geometry" />
        </mxCell>
        <mxCell id="oPMnrP6W9b5oBgMDUf0t-1" value="" style="rounded=0;whiteSpace=wrap;html=1;fillColor=#f5f5f5;strokeColor=#666666;fontColor=#333333;" parent="1" vertex="1">
          <mxGeometry x="40" y="30" width="660" height="260" as="geometry" />
        </mxCell>
        <mxCell id="oPMnrP6W9b5oBgMDUf0t-20" value="" style="rounded=0;whiteSpace=wrap;html=1;fillColor=#e1d5e7;strokeColor=#9673a6;" parent="1" vertex="1">
          <mxGeometry x="70" y="40" width="430" height="120" as="geometry" />
        </mxCell>
        <mxCell id="oPMnrP6W9b5oBgMDUf0t-19" value="" style="rounded=0;whiteSpace=wrap;html=1;fillColor=#e1d5e7;strokeColor=#9673a6;" parent="1" vertex="1">
          <mxGeometry x="73" y="170" width="327" height="110" as="geometry" />
        </mxCell>
        <mxCell id="AKDfMl0KxNYboA_P04yT-27" style="edgeStyle=orthogonalEdgeStyle;rounded=0;orthogonalLoop=1;jettySize=auto;html=1;exitX=1;exitY=0.5;exitDx=0;exitDy=0;entryX=0;entryY=0.5;entryDx=0;entryDy=0;" parent="1" source="AKDfMl0KxNYboA_P04yT-25" edge="1">
          <mxGeometry relative="1" as="geometry">
            <mxPoint x="730" y="540" as="targetPoint" />
          </mxGeometry>
        </mxCell>
        <mxCell id="AKDfMl0KxNYboA_P04yT-25" value="" style="rounded=0;whiteSpace=wrap;html=1;fillColor=#d5e8d4;strokeColor=#82b366;" parent="1" vertex="1">
          <mxGeometry x="40" y="380" width="660" height="320" as="geometry" />
        </mxCell>
        <mxCell id="AKDfMl0KxNYboA_P04yT-2" value="项目1" style="rounded=0;whiteSpace=wrap;html=1;" parent="1" vertex="1">
          <mxGeometry x="325" y="822.5" width="120" height="40" as="geometry" />
        </mxCell>
        <mxCell id="AKDfMl0KxNYboA_P04yT-20" style="edgeStyle=orthogonalEdgeStyle;rounded=0;orthogonalLoop=1;jettySize=auto;html=1;exitX=0.5;exitY=0;exitDx=0;exitDy=0;exitPerimeter=0;entryX=0.5;entryY=1;entryDx=0;entryDy=0;entryPerimeter=0;" parent="1" source="AKDfMl0KxNYboA_P04yT-5" target="AKDfMl0KxNYboA_P04yT-19" edge="1">
          <mxGeometry relative="1" as="geometry" />
        </mxCell>
        <mxCell id="AKDfMl0KxNYboA_P04yT-5" value="Actor" style="shape=umlActor;verticalLabelPosition=bottom;verticalAlign=top;html=1;outlineConnect=0;" parent="1" vertex="1">
          <mxGeometry x="250" y="602.5" width="30" height="60" as="geometry" />
        </mxCell>
        <mxCell id="AKDfMl0KxNYboA_P04yT-22" style="edgeStyle=orthogonalEdgeStyle;rounded=0;orthogonalLoop=1;jettySize=auto;html=1;exitX=0.5;exitY=0;exitDx=0;exitDy=0;exitPerimeter=0;entryX=0.5;entryY=1;entryDx=0;entryDy=0;entryPerimeter=0;" parent="1" source="AKDfMl0KxNYboA_P04yT-6" target="AKDfMl0KxNYboA_P04yT-21" edge="1">
          <mxGeometry relative="1" as="geometry" />
        </mxCell>
        <mxCell id="AKDfMl0KxNYboA_P04yT-6" value="Actor" style="shape=umlActor;verticalLabelPosition=bottom;verticalAlign=top;html=1;outlineConnect=0;" parent="1" vertex="1">
          <mxGeometry x="450" y="600" width="30" height="60" as="geometry" />
        </mxCell>
        <mxCell id="AKDfMl0KxNYboA_P04yT-24" style="edgeStyle=orthogonalEdgeStyle;rounded=0;orthogonalLoop=1;jettySize=auto;html=1;exitX=0.5;exitY=0;exitDx=0;exitDy=0;exitPerimeter=0;entryX=0.5;entryY=1;entryDx=0;entryDy=0;entryPerimeter=0;" parent="1" source="AKDfMl0KxNYboA_P04yT-7" target="AKDfMl0KxNYboA_P04yT-23" edge="1">
          <mxGeometry relative="1" as="geometry" />
        </mxCell>
        <mxCell id="AKDfMl0KxNYboA_P04yT-7" value="Actor" style="shape=umlActor;verticalLabelPosition=bottom;verticalAlign=top;html=1;outlineConnect=0;" parent="1" vertex="1">
          <mxGeometry x="577.5" y="605" width="30" height="60" as="geometry" />
        </mxCell>
        <mxCell id="AKDfMl0KxNYboA_P04yT-18" style="edgeStyle=orthogonalEdgeStyle;rounded=0;orthogonalLoop=1;jettySize=auto;html=1;exitX=0.5;exitY=0;exitDx=0;exitDy=0;exitPerimeter=0;entryX=0.5;entryY=1;entryDx=0;entryDy=0;entryPerimeter=0;" parent="1" source="AKDfMl0KxNYboA_P04yT-14" target="AKDfMl0KxNYboA_P04yT-17" edge="1">
          <mxGeometry relative="1" as="geometry" />
        </mxCell>
        <mxCell id="AKDfMl0KxNYboA_P04yT-14" value="Actor" style="shape=umlActor;verticalLabelPosition=bottom;verticalAlign=top;html=1;outlineConnect=0;" parent="1" vertex="1">
          <mxGeometry x="117.5" y="605" width="30" height="60" as="geometry" />
        </mxCell>
        <mxCell id="AKDfMl0KxNYboA_P04yT-17" value="所有数据文档" style="shape=note;whiteSpace=wrap;html=1;backgroundOutline=1;darkOpacity=0.05;" parent="1" vertex="1">
          <mxGeometry x="90" y="472.5" width="85" height="80" as="geometry" />
        </mxCell>
        <mxCell id="AKDfMl0KxNYboA_P04yT-19" value="所有数据文档" style="shape=note;whiteSpace=wrap;html=1;backgroundOutline=1;darkOpacity=0.05;" parent="1" vertex="1">
          <mxGeometry x="222.5" y="390" width="85" height="162.5" as="geometry" />
        </mxCell>
        <mxCell id="AKDfMl0KxNYboA_P04yT-21" value="所有数据文档" style="shape=note;whiteSpace=wrap;html=1;backgroundOutline=1;darkOpacity=0.05;" parent="1" vertex="1">
          <mxGeometry x="422.5" y="440" width="85" height="122.5" as="geometry" />
        </mxCell>
        <mxCell id="AKDfMl0KxNYboA_P04yT-23" value="所有数据文档" style="shape=note;whiteSpace=wrap;html=1;backgroundOutline=1;darkOpacity=0.05;" parent="1" vertex="1">
          <mxGeometry x="550" y="482.5" width="85" height="80" as="geometry" />
        </mxCell>
        <mxCell id="AKDfMl0KxNYboA_P04yT-28" value="neo4j图数据库" style="shape=cylinder3;whiteSpace=wrap;html=1;boundedLbl=1;backgroundOutline=1;size=15;" parent="1" vertex="1">
          <mxGeometry x="730" y="760" width="70" height="110" as="geometry" />
        </mxCell>
        <mxCell id="AKDfMl0KxNYboA_P04yT-29" value="&lt;span&gt;mongodb文档型nosql数据库&lt;/span&gt;" style="shape=cylinder3;whiteSpace=wrap;html=1;boundedLbl=1;backgroundOutline=1;size=15;" parent="1" vertex="1">
          <mxGeometry x="730" y="480" width="60" height="120" as="geometry" />
        </mxCell>
        <mxCell id="AKDfMl0KxNYboA_P04yT-31" style="edgeStyle=orthogonalEdgeStyle;rounded=0;orthogonalLoop=1;jettySize=auto;html=1;" parent="1" source="AKDfMl0KxNYboA_P04yT-30" target="AKDfMl0KxNYboA_P04yT-2" edge="1">
          <mxGeometry relative="1" as="geometry" />
        </mxCell>
        <mxCell id="AKDfMl0KxNYboA_P04yT-39" style="edgeStyle=orthogonalEdgeStyle;rounded=0;orthogonalLoop=1;jettySize=auto;html=1;" parent="1" source="AKDfMl0KxNYboA_P04yT-30" target="AKDfMl0KxNYboA_P04yT-35" edge="1">
          <mxGeometry relative="1" as="geometry" />
        </mxCell>
        <mxCell id="AKDfMl0KxNYboA_P04yT-30" value="Actor" style="shape=umlActor;verticalLabelPosition=bottom;verticalAlign=top;html=1;outlineConnect=0;" parent="1" vertex="1">
          <mxGeometry x="205" y="812.5" width="30" height="60" as="geometry" />
        </mxCell>
        <mxCell id="AKDfMl0KxNYboA_P04yT-34" style="edgeStyle=orthogonalEdgeStyle;rounded=0;orthogonalLoop=1;jettySize=auto;html=1;exitX=0.5;exitY=0;exitDx=0;exitDy=0;exitPerimeter=0;entryX=0.5;entryY=1;entryDx=0;entryDy=0;" parent="1" source="AKDfMl0KxNYboA_P04yT-33" target="AKDfMl0KxNYboA_P04yT-2" edge="1">
          <mxGeometry relative="1" as="geometry" />
        </mxCell>
        <mxCell id="AKDfMl0KxNYboA_P04yT-36" style="edgeStyle=orthogonalEdgeStyle;rounded=0;orthogonalLoop=1;jettySize=auto;html=1;exitX=0;exitY=0.3333333333333333;exitDx=0;exitDy=0;exitPerimeter=0;entryX=1;entryY=0.5;entryDx=0;entryDy=0;" parent="1" source="AKDfMl0KxNYboA_P04yT-33" target="AKDfMl0KxNYboA_P04yT-35" edge="1">
          <mxGeometry relative="1" as="geometry" />
        </mxCell>
        <mxCell id="AKDfMl0KxNYboA_P04yT-33" value="Actor" style="shape=umlActor;verticalLabelPosition=bottom;verticalAlign=top;html=1;outlineConnect=0;" parent="1" vertex="1">
          <mxGeometry x="370" y="920" width="30" height="60" as="geometry" />
        </mxCell>
        <mxCell id="AKDfMl0KxNYboA_P04yT-35" value="项目2" style="rounded=0;whiteSpace=wrap;html=1;" parent="1" vertex="1">
          <mxGeometry x="160" y="920" width="120" height="40" as="geometry" />
        </mxCell>
        <mxCell id="AKDfMl0KxNYboA_P04yT-38" style="edgeStyle=orthogonalEdgeStyle;rounded=0;orthogonalLoop=1;jettySize=auto;html=1;exitX=0.5;exitY=0.5;exitDx=0;exitDy=0;exitPerimeter=0;" parent="1" source="AKDfMl0KxNYboA_P04yT-37" target="AKDfMl0KxNYboA_P04yT-35" edge="1">
          <mxGeometry relative="1" as="geometry" />
        </mxCell>
        <mxCell id="AKDfMl0KxNYboA_P04yT-37" value="Actor" style="shape=umlActor;verticalLabelPosition=bottom;verticalAlign=top;html=1;outlineConnect=0;" parent="1" vertex="1">
          <mxGeometry x="60" y="910" width="30" height="60" as="geometry" />
        </mxCell>
        <mxCell id="AKDfMl0KxNYboA_P04yT-42" style="edgeStyle=orthogonalEdgeStyle;rounded=0;orthogonalLoop=1;jettySize=auto;html=1;" parent="1" source="AKDfMl0KxNYboA_P04yT-41" target="AKDfMl0KxNYboA_P04yT-2" edge="1">
          <mxGeometry relative="1" as="geometry" />
        </mxCell>
        <mxCell id="AKDfMl0KxNYboA_P04yT-41" value="Actor" style="shape=umlActor;verticalLabelPosition=bottom;verticalAlign=top;html=1;outlineConnect=0;" parent="1" vertex="1">
          <mxGeometry x="370" y="710" width="30" height="60" as="geometry" />
        </mxCell>
        <mxCell id="oPMnrP6W9b5oBgMDUf0t-16" style="edgeStyle=orthogonalEdgeStyle;rounded=0;orthogonalLoop=1;jettySize=auto;html=1;exitX=1;exitY=0.5;exitDx=0;exitDy=0;" parent="1" source="oPMnrP6W9b5oBgMDUf0t-1" target="oPMnrP6W9b5oBgMDUf0t-15" edge="1">
          <mxGeometry relative="1" as="geometry" />
        </mxCell>
        <mxCell id="oPMnrP6W9b5oBgMDUf0t-5" style="edgeStyle=orthogonalEdgeStyle;rounded=0;orthogonalLoop=1;jettySize=auto;html=1;exitX=1;exitY=0.5;exitDx=0;exitDy=0;" parent="1" source="oPMnrP6W9b5oBgMDUf0t-2" target="oPMnrP6W9b5oBgMDUf0t-3" edge="1">
          <mxGeometry relative="1" as="geometry" />
        </mxCell>
        <mxCell id="oPMnrP6W9b5oBgMDUf0t-6" style="edgeStyle=orthogonalEdgeStyle;rounded=0;orthogonalLoop=1;jettySize=auto;html=1;exitX=1;exitY=0.5;exitDx=0;exitDy=0;" parent="1" source="oPMnrP6W9b5oBgMDUf0t-2" target="oPMnrP6W9b5oBgMDUf0t-4" edge="1">
          <mxGeometry relative="1" as="geometry" />
        </mxCell>
        <mxCell id="oPMnrP6W9b5oBgMDUf0t-2" value="表1" style="rounded=0;whiteSpace=wrap;html=1;" parent="1" vertex="1">
          <mxGeometry x="100" y="80" width="120" height="40" as="geometry" />
        </mxCell>
        <mxCell id="oPMnrP6W9b5oBgMDUf0t-13" style="edgeStyle=orthogonalEdgeStyle;rounded=0;orthogonalLoop=1;jettySize=auto;html=1;exitX=1;exitY=0.5;exitDx=0;exitDy=0;entryX=0;entryY=0.25;entryDx=0;entryDy=0;" parent="1" source="oPMnrP6W9b5oBgMDUf0t-3" target="oPMnrP6W9b5oBgMDUf0t-12" edge="1">
          <mxGeometry relative="1" as="geometry" />
        </mxCell>
        <mxCell id="oPMnrP6W9b5oBgMDUf0t-3" value="副表" style="rounded=0;whiteSpace=wrap;html=1;" parent="1" vertex="1">
          <mxGeometry x="260" y="50" width="120" height="40" as="geometry" />
        </mxCell>
        <mxCell id="oPMnrP6W9b5oBgMDUf0t-4" value="副表N" style="rounded=0;whiteSpace=wrap;html=1;" parent="1" vertex="1">
          <mxGeometry x="260" y="110" width="120" height="40" as="geometry" />
        </mxCell>
        <mxCell id="oPMnrP6W9b5oBgMDUf0t-7" style="edgeStyle=orthogonalEdgeStyle;rounded=0;orthogonalLoop=1;jettySize=auto;html=1;exitX=1;exitY=0.5;exitDx=0;exitDy=0;" parent="1" source="oPMnrP6W9b5oBgMDUf0t-9" target="oPMnrP6W9b5oBgMDUf0t-10" edge="1">
          <mxGeometry relative="1" as="geometry" />
        </mxCell>
        <mxCell id="oPMnrP6W9b5oBgMDUf0t-9" value="表2" style="rounded=0;whiteSpace=wrap;html=1;" parent="1" vertex="1">
          <mxGeometry x="100" y="180" width="120" height="40" as="geometry" />
        </mxCell>
        <mxCell id="oPMnrP6W9b5oBgMDUf0t-10" value="副表" style="rounded=0;whiteSpace=wrap;html=1;" parent="1" vertex="1">
          <mxGeometry x="260" y="180" width="120" height="40" as="geometry" />
        </mxCell>
        <mxCell id="oPMnrP6W9b5oBgMDUf0t-11" value="副表" style="rounded=0;whiteSpace=wrap;html=1;" parent="1" vertex="1">
          <mxGeometry x="260" y="230" width="120" height="40" as="geometry" />
        </mxCell>
        <mxCell id="oPMnrP6W9b5oBgMDUf0t-12" value="副表" style="rounded=0;whiteSpace=wrap;html=1;" parent="1" vertex="1">
          <mxGeometry x="422.5" y="50" width="47.5" height="100" as="geometry" />
        </mxCell>
        <mxCell id="oPMnrP6W9b5oBgMDUf0t-14" value="维度表" style="rounded=0;whiteSpace=wrap;html=1;" parent="1" vertex="1">
          <mxGeometry x="507.5" y="50" width="120" height="40" as="geometry" />
        </mxCell>
        <mxCell id="oPMnrP6W9b5oBgMDUf0t-15" value="&lt;span&gt;关系型数据库&lt;/span&gt;" style="shape=cylinder3;whiteSpace=wrap;html=1;boundedLbl=1;backgroundOutline=1;size=15;" parent="1" vertex="1">
          <mxGeometry x="750" y="100" width="60" height="120" as="geometry" />
        </mxCell>
        <mxCell id="oPMnrP6W9b5oBgMDUf0t-18" style="edgeStyle=orthogonalEdgeStyle;rounded=0;orthogonalLoop=1;jettySize=auto;html=1;exitX=1;exitY=0.5;exitDx=0;exitDy=0;" parent="1" source="oPMnrP6W9b5oBgMDUf0t-17" target="oPMnrP6W9b5oBgMDUf0t-11" edge="1">
          <mxGeometry relative="1" as="geometry" />
        </mxCell>
        <mxCell id="oPMnrP6W9b5oBgMDUf0t-17" value="表3" style="rounded=0;whiteSpace=wrap;html=1;" parent="1" vertex="1">
          <mxGeometry x="100" y="230" width="120" height="40" as="geometry" />
        </mxCell>
        <mxCell id="Tf8j6212PkN7MsToNADK-3" style="edgeStyle=orthogonalEdgeStyle;rounded=0;orthogonalLoop=1;jettySize=auto;html=1;entryX=0.5;entryY=0;entryDx=0;entryDy=0;" parent="1" source="Tf8j6212PkN7MsToNADK-1" target="AKDfMl0KxNYboA_P04yT-25" edge="1">
          <mxGeometry relative="1" as="geometry" />
        </mxCell>
        <mxCell id="Tf8j6212PkN7MsToNADK-1" value="参考page3" style="shape=parallelogram;perimeter=parallelogramPerimeter;whiteSpace=wrap;html=1;fixedSize=1;" parent="1" vertex="1">
          <mxGeometry x="310" y="310" width="120" height="40" as="geometry" />
        </mxCell>
      </root>
    </mxGraphModel>
  </diagram>
  <diagram id="3JqxGcT2bP3A6DceB_m4" name="Page-2">
    <mxGraphModel dx="1422" dy="738" grid="1" gridSize="10" guides="1" tooltips="1" connect="1" arrows="1" fold="1" page="1" pageScale="1" pageWidth="827" pageHeight="1169" math="0" shadow="0">
      <root>
        <mxCell id="sEm9p-R6kC2id6EUF4ul-0" />
        <mxCell id="sEm9p-R6kC2id6EUF4ul-1" parent="sEm9p-R6kC2id6EUF4ul-0" />
        <mxCell id="sEm9p-R6kC2id6EUF4ul-11" value="" style="shape=note;whiteSpace=wrap;html=1;backgroundOutline=1;darkOpacity=0.05;" parent="sEm9p-R6kC2id6EUF4ul-1" vertex="1">
          <mxGeometry x="290" y="80" width="420" height="140" as="geometry" />
        </mxCell>
        <mxCell id="sEm9p-R6kC2id6EUF4ul-5" style="edgeStyle=orthogonalEdgeStyle;rounded=0;orthogonalLoop=1;jettySize=auto;html=1;" parent="sEm9p-R6kC2id6EUF4ul-1" source="sEm9p-R6kC2id6EUF4ul-2" target="sEm9p-R6kC2id6EUF4ul-4" edge="1">
          <mxGeometry relative="1" as="geometry" />
        </mxCell>
        <mxCell id="sEm9p-R6kC2id6EUF4ul-6" style="edgeStyle=orthogonalEdgeStyle;rounded=0;orthogonalLoop=1;jettySize=auto;html=1;exitX=0.5;exitY=0.5;exitDx=0;exitDy=0;exitPerimeter=0;" parent="sEm9p-R6kC2id6EUF4ul-1" source="sEm9p-R6kC2id6EUF4ul-2" target="sEm9p-R6kC2id6EUF4ul-3" edge="1">
          <mxGeometry relative="1" as="geometry" />
        </mxCell>
        <mxCell id="sEm9p-R6kC2id6EUF4ul-2" value="Actor" style="shape=umlActor;verticalLabelPosition=bottom;verticalAlign=top;html=1;outlineConnect=0;" parent="sEm9p-R6kC2id6EUF4ul-1" vertex="1">
          <mxGeometry x="210" y="110" width="30" height="60" as="geometry" />
        </mxCell>
        <mxCell id="sEm9p-R6kC2id6EUF4ul-8" style="edgeStyle=orthogonalEdgeStyle;rounded=0;orthogonalLoop=1;jettySize=auto;html=1;exitX=1;exitY=0.5;exitDx=0;exitDy=0;" parent="sEm9p-R6kC2id6EUF4ul-1" source="sEm9p-R6kC2id6EUF4ul-3" target="sEm9p-R6kC2id6EUF4ul-7" edge="1">
          <mxGeometry relative="1" as="geometry" />
        </mxCell>
        <mxCell id="sEm9p-R6kC2id6EUF4ul-3" value="表信息：parent:-1" style="rounded=0;whiteSpace=wrap;html=1;" parent="sEm9p-R6kC2id6EUF4ul-1" vertex="1">
          <mxGeometry x="314" y="110" width="76" height="60" as="geometry" />
        </mxCell>
        <mxCell id="sEm9p-R6kC2id6EUF4ul-4" value="身份属性" style="ellipse;whiteSpace=wrap;html=1;" parent="sEm9p-R6kC2id6EUF4ul-1" vertex="1">
          <mxGeometry x="50" y="110" width="90" height="60" as="geometry" />
        </mxCell>
        <mxCell id="sEm9p-R6kC2id6EUF4ul-10" style="edgeStyle=orthogonalEdgeStyle;rounded=0;orthogonalLoop=1;jettySize=auto;html=1;entryX=0;entryY=0.5;entryDx=0;entryDy=0;" parent="sEm9p-R6kC2id6EUF4ul-1" source="sEm9p-R6kC2id6EUF4ul-7" target="sEm9p-R6kC2id6EUF4ul-9" edge="1">
          <mxGeometry relative="1" as="geometry" />
        </mxCell>
        <mxCell id="sEm9p-R6kC2id6EUF4ul-13" style="edgeStyle=orthogonalEdgeStyle;rounded=0;orthogonalLoop=1;jettySize=auto;html=1;exitX=1;exitY=0.5;exitDx=0;exitDy=0;entryX=0;entryY=0.5;entryDx=0;entryDy=0;" parent="sEm9p-R6kC2id6EUF4ul-1" source="sEm9p-R6kC2id6EUF4ul-7" target="sEm9p-R6kC2id6EUF4ul-12" edge="1">
          <mxGeometry relative="1" as="geometry" />
        </mxCell>
        <mxCell id="sEm9p-R6kC2id6EUF4ul-7" value="记录" style="rounded=0;whiteSpace=wrap;html=1;" parent="sEm9p-R6kC2id6EUF4ul-1" vertex="1">
          <mxGeometry x="450" y="110" width="70" height="60" as="geometry" />
        </mxCell>
        <mxCell id="sEm9p-R6kC2id6EUF4ul-9" value="字段" style="rounded=0;whiteSpace=wrap;html=1;" parent="sEm9p-R6kC2id6EUF4ul-1" vertex="1">
          <mxGeometry x="570" y="160" width="80" height="40" as="geometry" />
        </mxCell>
        <mxCell id="sEm9p-R6kC2id6EUF4ul-12" value="数目:[]" style="rounded=0;whiteSpace=wrap;html=1;" parent="sEm9p-R6kC2id6EUF4ul-1" vertex="1">
          <mxGeometry x="570" y="90" width="80" height="40" as="geometry" />
        </mxCell>
        <mxCell id="sEm9p-R6kC2id6EUF4ul-14" style="edgeStyle=orthogonalEdgeStyle;rounded=0;orthogonalLoop=1;jettySize=auto;html=1;exitX=0.5;exitY=1;exitDx=0;exitDy=0;entryX=1;entryY=0.75;entryDx=0;entryDy=0;" parent="sEm9p-R6kC2id6EUF4ul-1" source="sEm9p-R6kC2id6EUF4ul-3" target="sEm9p-R6kC2id6EUF4ul-3" edge="1">
          <mxGeometry relative="1" as="geometry" />
        </mxCell>
        <mxCell id="sEm9p-R6kC2id6EUF4ul-15" value="子表" style="edgeLabel;html=1;align=center;verticalAlign=middle;resizable=0;points=[];" parent="sEm9p-R6kC2id6EUF4ul-14" vertex="1" connectable="0">
          <mxGeometry x="-0.0075" relative="1" as="geometry">
            <mxPoint as="offset" />
          </mxGeometry>
        </mxCell>
        <mxCell id="UF5t-3diVExdKPFhKRU6-0" value="主表1" style="rounded=0;whiteSpace=wrap;html=1;" parent="sEm9p-R6kC2id6EUF4ul-1" vertex="1">
          <mxGeometry x="110" y="300" width="120" height="40" as="geometry" />
        </mxCell>
        <mxCell id="UF5t-3diVExdKPFhKRU6-1" value="主表1" style="rounded=0;whiteSpace=wrap;html=1;" parent="sEm9p-R6kC2id6EUF4ul-1" vertex="1">
          <mxGeometry x="292" y="300" width="120" height="40" as="geometry" />
        </mxCell>
      </root>
    </mxGraphModel>
  </diagram>
  <diagram id="oYlYeE7jwGaoyuvaMEev" name="Page-4">
    <mxGraphModel dx="1422" dy="738" grid="1" gridSize="10" guides="1" tooltips="1" connect="1" arrows="1" fold="1" page="1" pageScale="1" pageWidth="827" pageHeight="1169" math="0" shadow="0">
      <root>
        <mxCell id="HiyEah95GNFgz9mAECQU-0" />
        <mxCell id="HiyEah95GNFgz9mAECQU-1" parent="HiyEah95GNFgz9mAECQU-0" />
        <mxCell id="HiyEah95GNFgz9mAECQU-2" style="edgeStyle=orthogonalEdgeStyle;rounded=0;orthogonalLoop=1;jettySize=auto;html=1;exitX=1;exitY=0.5;exitDx=0;exitDy=0;" parent="HiyEah95GNFgz9mAECQU-1" source="HiyEah95GNFgz9mAECQU-4" target="HiyEah95GNFgz9mAECQU-6" edge="1">
          <mxGeometry relative="1" as="geometry" />
        </mxCell>
        <mxCell id="HiyEah95GNFgz9mAECQU-3" style="edgeStyle=orthogonalEdgeStyle;rounded=0;orthogonalLoop=1;jettySize=auto;html=1;exitX=1;exitY=0.5;exitDx=0;exitDy=0;" parent="HiyEah95GNFgz9mAECQU-1" source="HiyEah95GNFgz9mAECQU-4" target="HiyEah95GNFgz9mAECQU-7" edge="1">
          <mxGeometry relative="1" as="geometry" />
        </mxCell>
        <mxCell id="HiyEah95GNFgz9mAECQU-4" value="表1" style="rounded=0;whiteSpace=wrap;html=1;" parent="HiyEah95GNFgz9mAECQU-1" vertex="1">
          <mxGeometry x="100" y="80" width="120" height="40" as="geometry" />
        </mxCell>
        <mxCell id="HiyEah95GNFgz9mAECQU-5" style="edgeStyle=orthogonalEdgeStyle;rounded=0;orthogonalLoop=1;jettySize=auto;html=1;exitX=1;exitY=0.5;exitDx=0;exitDy=0;entryX=0;entryY=0.5;entryDx=0;entryDy=0;" parent="HiyEah95GNFgz9mAECQU-1" source="HiyEah95GNFgz9mAECQU-6" target="HiyEah95GNFgz9mAECQU-8" edge="1">
          <mxGeometry relative="1" as="geometry" />
        </mxCell>
        <mxCell id="HiyEah95GNFgz9mAECQU-6" value="副表" style="rounded=0;whiteSpace=wrap;html=1;" parent="HiyEah95GNFgz9mAECQU-1" vertex="1">
          <mxGeometry x="260" y="50" width="120" height="40" as="geometry" />
        </mxCell>
        <mxCell id="HiyEah95GNFgz9mAECQU-7" value="副表N" style="rounded=0;whiteSpace=wrap;html=1;" parent="HiyEah95GNFgz9mAECQU-1" vertex="1">
          <mxGeometry x="260" y="110" width="120" height="40" as="geometry" />
        </mxCell>
        <mxCell id="HiyEah95GNFgz9mAECQU-8" value="副表" style="rounded=0;whiteSpace=wrap;html=1;" parent="HiyEah95GNFgz9mAECQU-1" vertex="1">
          <mxGeometry x="422.5" y="50" width="87.5" height="40" as="geometry" />
        </mxCell>
      </root>
    </mxGraphModel>
  </diagram>
  <diagram id="MbI7gViSZvKQsGCnVWP0" name="Page-3">
    <mxGraphModel dx="1422" dy="738" grid="1" gridSize="10" guides="1" tooltips="1" connect="1" arrows="1" fold="1" page="1" pageScale="1" pageWidth="827" pageHeight="1169" math="0" shadow="0">
      <root>
        <mxCell id="EIcGK4AL5zNrbdCAfnkp-0" />
        <mxCell id="EIcGK4AL5zNrbdCAfnkp-1" parent="EIcGK4AL5zNrbdCAfnkp-0" />
        <mxCell id="EIcGK4AL5zNrbdCAfnkp-2" value="Actor" style="shape=umlActor;verticalLabelPosition=bottom;verticalAlign=top;html=1;outlineConnect=0;" parent="EIcGK4AL5zNrbdCAfnkp-1" vertex="1">
          <mxGeometry x="240" y="450" width="30" height="60" as="geometry" />
        </mxCell>
        <mxCell id="EIcGK4AL5zNrbdCAfnkp-3" value="Actor" style="shape=umlActor;verticalLabelPosition=bottom;verticalAlign=top;html=1;outlineConnect=0;" parent="EIcGK4AL5zNrbdCAfnkp-1" vertex="1">
          <mxGeometry x="330" y="450" width="30" height="60" as="geometry" />
        </mxCell>
        <mxCell id="EIcGK4AL5zNrbdCAfnkp-4" value="" style="rounded=0;whiteSpace=wrap;html=1;" parent="EIcGK4AL5zNrbdCAfnkp-1" vertex="1">
          <mxGeometry x="120" y="40" width="600" height="210" as="geometry" />
        </mxCell>
        <mxCell id="EIcGK4AL5zNrbdCAfnkp-5" value="指标1" style="rounded=0;whiteSpace=wrap;html=1;" parent="EIcGK4AL5zNrbdCAfnkp-1" vertex="1">
          <mxGeometry x="190" y="115" width="80" height="35" as="geometry" />
        </mxCell>
      </root>
    </mxGraphModel>
  </diagram>
</mxfile>
